inDegrees=yes
name=ik_S51_A07_T01
DataType=double
version=3
OpenSimVersion=4.3-2021-08-27-4bc7ad9
endheader
time	pelvis_tilt	pelvis_list	pelvis_rotation	pelvis_tx	pelvis_ty	pelvis_tz	hip_flexion_r	hip_adduction_r	hip_rotation_r	knee_angle_r	knee_angle_r_beta	ankle_angle_r	subtalar_angle_r	mtp_angle_r	hip_flexion_l	hip_adduction_l	hip_rotation_l	knee_angle_l	knee_angle_l_beta	ankle_angle_l	subtalar_angle_l	mtp_angle_l	lumbar_extension	lumbar_bending	lumbar_rotation	arm_flex_r	arm_add_r	arm_rot_r	elbow_flex_r	pro_sup_r	wrist_flex_r	wrist_dev_r	arm_flex_l	arm_add_l	arm_rot_l	elbow_flex_l	pro_sup_l	wrist_flex_l	wrist_dev_l
6.599999999999947	-3.336456320128456	-2.344168699544066	20.63009775966187	0	0.9399999999999999	0	46.3655651389448	-10.36694448271918	-10.61100039815993	52.86816191221668	0.9227234948456424	0	0	0	46.3655651389448	-10.36694448271918	-10.61100039815993	52.86816191221668	0.9227234948456424	0	0	0	-0.5806160141097556	0.9862918290515014	10.9494300980219	30.31420512055931	-48.09651728494834	-13.79739622776477	129.7624971006618	30.66585063620702	0	0	33.07392675034758	-1.778406345287329	-13.18124372511602	27.01643102537982	127.1657301718792	0	0
6.619999999999947	-3.361520808739071	-2.353215340093297	20.67267705309355	0	0.9399999999999999	0	46.36503247561691	-10.3664464528484	-10.61046777157384	52.86872097028538	0.9227332522496511	0	0	0	46.36503247561691	-10.3664464528484	-10.61046777157384	52.86872097028538	0.9227332522496511	0	0	0	-0.610875790302103	0.9879729656956382	10.87356243092984	30.45899517756348	-48.02799830727702	-13.57958870705231	130.5719325348767	30.43198982111132	0	0	33.05161985180093	-1.826690322711259	-13.14691610008039	27.04453706547702	127.1161509074772	0	0
6.639999999999946	-3.380935313056963	-2.35767348327197	20.76511435546346	0	0.9399999999999999	0	46.36464472862283	-10.36608351412269	-10.61007971448661	52.8691272398617	0.9227403429914085	0	0	0	46.36464472862283	-10.36608351412269	-10.61007971448661	52.8691272398617	0.9227403429914085	0	0	0	-0.6333446859054436	0.9917255858473513	10.81867521324659	30.63603453067795	-47.91978031448896	-13.06435540905695	131.3610016158824	30.54428635908615	0	0	33.02917255526889	-1.823026975470551	-13.07142896617915	27.06857207494018	127.0425209036039	0	0
6.659999999999946	-3.423625843411803	-2.366689525994746	20.84165693602643	0	0.9399999999999999	0	46.36403196030245	-10.36550904810718	-10.60946571907388	52.86976782490504	0.9227515233095538	0	0	0	46.36403196030245	-10.36550904810718	-10.60946571907388	52.86976782490504	0.9227515233095538	0	0	0	-0.6810199300575106	1.000285135776652	10.72608606151941	31.0042433934133	-47.88353198279378	-12.38043580348573	132.3629649953205	30.63847337252327	0	0	33.00956923013788	-1.83628899467813	-13.11861852821634	27.15189514044829	127.020439787019	0	0
6.679999999999946	-3.420362673604813	-2.365900809108548	20.89477144444054	0	0.9399999999999999	0	46.3636457251404	-10.36514782458576	-10.6090792705238	52.87017222402644	0.9227585814057144	0	0	0	46.3636457251404	-10.36514782458576	-10.6090792705238	52.87017222402644	0.9227585814057144	0	0	0	-0.6802003926655761	1.000757011234856	10.67872980862548	31.17121645207161	-47.93250718500856	-11.8545113100378	132.8256153394804	30.78295373304938	0	0	32.94994116256078	-1.841532992113874	-13.19681052838487	27.20155679905005	127.0755621975516	0	0
6.699999999999945	-3.454101702092796	-2.364175968443286	20.96269837148115	0	0.9399999999999999	0	46.36263219308245	-10.36420340297194	-10.60806739752036	52.87123582686725	0.9227771447772201	0	0	0	46.36263219308245	-10.36420340297194	-10.60806739752036	52.87123582686725	0.9227771447772201	0	0	0	-0.7180458794701587	1.017211632644951	10.53750953662585	31.65197750547295	-48.0569136894992	-11.61953424993094	134.1368136270176	30.30958061772432	0	0	32.95496097668404	-1.868561656064191	-13.32068106630461	27.26166730141264	127.1116226575621	0	0
6.719999999999945	-3.458873391540109	-2.346327008246391	20.95677276317	0	0.9399999999999999	0	46.36167298992576	-10.36331153010204	-10.60711088872962	52.87224321335452	0.922794726988263	0	0	0	46.36167298992576	-10.36331153010204	-10.60711088872962	52.87224321335452	0.922794726988263	0	0	0	-0.7189203535433497	1.036285016565715	10.48748674890382	32.00285743172764	-48.23188393770528	-11.68010631641421	135.6498837144368	29.73215569557656	0	0	32.90072770445599	-1.878104991392433	-13.33817727945964	27.31437308527536	127.0465827416516	0	0
6.739999999999944	-3.450027785482431	-2.309083712581868	20.89419386770758	0	0.9399999999999999	0	46.36028582951276	-10.36201786443853	-10.605724355672	52.87369326041021	0.9228200350836937	0	0	0	46.36028582951276	-10.36201786443853	-10.605724355672	52.87369326041021	0.9228200350836937	0	0	0	-0.6999133417198847	1.065943677091866	10.48467531205386	32.30654818203666	-48.51810784260308	-12.0039898833586	137.3166971037325	29.02057347291092	0	0	32.8407413756049	-1.863059553305955	-13.41396071120157	27.24498787318439	127.0790965946844	0	0
6.759999999999944	-3.458019241553903	-2.289929753852304	20.81745691485753	0	0.9399999999999999	0	46.35917792170429	-10.36098712833654	-10.60461830820643	52.87485190256746	0.9228402572041901	0	0	0	46.35917792170429	-10.36098712833654	-10.60461830820643	52.87485190256746	0.9228402572041901	0	0	0	-0.7009192443321446	1.084933072301607	10.51934093998609	32.74939507338706	-48.86483213227461	-12.46743369111989	139.0164864169284	28.45426601045031	0	0	32.81526597325031	-1.861616926482133	-13.37764047894246	27.26047697033366	127.0572727128263	0	0
6.779999999999943	-3.450859392109334	-2.271199302436263	20.81970132735744	0	0.9399999999999999	0	46.35794977456873	-10.3598489251586	-10.60339491456648	52.87613871883273	0.9228627163848874	0	0	0	46.35794977456873	-10.3598489251586	-10.60339491456648	52.87613871883273	0.9228627163848874	0	0	0	-0.6906463477979451	1.09956437515206	10.48339494148204	32.76349071423708	-48.6816835959479	-12.75950360325812	140.5629169798237	28.78670389763542	0	0	32.77658934752673	-1.837799074419736	-13.41494835914347	27.23875428089294	127.1166936794761	0	0
6.799999999999943	-3.453023839588116	-2.255207414233694	20.7274117089397	0	0.9399999999999999	0	46.35723292332427	-10.35918584226126	-10.60268154255096	52.87689013454715	0.9228758310631551	0	0	0	46.35723292332427	-10.35918584226126	-10.60268154255096	52.87689013454715	0.9228758310631551	0	0	0	-0.6863422651739879	1.113197978930315	10.53285476755216	34.05737097652777	-49.28982833746394	-12.87974033660024	142.3324755032013	28.61184609618818	0	0	32.74400955372289	-1.877901905014905	-13.24424695914985	27.26828542530308	126.9668442655983	0	0
6.819999999999943	-3.432863367869512	-2.231391144938141	20.73933511364337	0	0.9399999999999999	0	46.35680224680154	-10.35879020930014	-10.60225483729706	52.8773441352802	0.9228837548707534	0	0	0	46.35680224680154	-10.35879020930014	-10.60225483729706	52.8773441352802	0.9228837548707534	0	0	0	-0.6600166305125583	1.128619053361827	10.51727696609958	34.7511964203138	-49.42297358104398	-12.65831222042793	143.3499363200601	28.84621740244631	0	0	32.69342526422323	-1.876595261706719	-13.15477162551046	27.27731432093591	127.0613586110493	0	0
6.839999999999942	-3.413874312735281	-2.195964768780775	20.77104389655387	0	0.9399999999999999	0	46.35640518557616	-10.35842624012434	-10.60186194794036	52.87776328632613	0.922891070436568	0	0	0	46.35640518557616	-10.35842624012434	-10.60186194794036	52.87776328632613	0.922891070436568	0	0	0	-0.6317949714755149	1.156032729591282	10.47429248023756	35.51825323519274	-49.53959091277268	-12.27139138984372	144.276851356708	28.95121878458209	0	0	32.64155550942498	-1.871266073670702	-13.07770646004789	27.28554976479107	127.0460453902074	0	0
6.859999999999942	-3.399511104752051	-2.157344580890568	20.78278684955422	0	0.9399999999999999	0	46.35542027068261	-10.35751726525483	-10.60088278978161	52.87879532163743	0.922909082850747	0	0	0	46.35542027068261	-10.35751726525483	-10.60088278978161	52.87879532163743	0.922909082850747	0	0	0	-0.6084504332151842	1.187949087836894	10.40403793533167	36.49671069391461	-49.66212976163605	-11.71203198079697	144.9543354316218	28.95893574576439	0	0	32.61069572702117	-1.898795203028665	-13.07335193528972	27.22958068367993	127.10496661923	0	0
6.879999999999941	-3.397246907471779	-2.141563658280012	20.79605878503621	0	0.9399999999999999	0	46.35484840696606	-10.35699247562477	-10.60031627598839	52.87939711850028	0.922919586187432	0	0	0	46.35484840696606	-10.35699247562477	-10.60031627598839	52.87939711850028	0.922919586187432	0	0	0	-0.6013748579747689	1.201693059563453	10.39658607317329	37.29440962890124	-49.96735718573792	-11.31108354003814	145.181857491701	28.82602784832854	0	0	32.62231319360738	-1.92324186817261	-12.99174401782001	27.20472495944025	127.0415536792706	0	0
6.899999999999941	-3.372956696314927	-2.133553088992594	20.7884999580807	0	0.9399999999999999	0	46.35412851041501	-10.3563303327326	-10.59960188793522	52.88015228917892	0.9229327664021888	0	0	0	46.35412851041501	-10.3563303327326	-10.59960188793522	52.88015228917892	0.9229327664021888	0	0	0	-0.5777041747081487	1.200658383245178	10.3638541936292	38.2063805046587	-50.07754449422249	-10.9912238102654	145.7556859048988	28.99465191200861	0	0	32.59078379957622	-1.99385958340964	-12.97915270128419	27.16462669833957	127.0021381839987	0	0
